<svg xmlns="http://www.w3.org/2000/svg" xmlns:xlink="http://www.w3.org/1999/xlink" width="20" height="20" viewBox="0 0 20 20"><defs><clipPath id="a"><rect width="20" height="20" stroke="#707070" stroke-width="1"/></clipPath></defs><g clip-path="url(#a)"><g transform="translate(4.593)"><path d="M17.526,0,14.932,0a4.555,4.555,0,0,0-4.8,4.922V7.191H7.528A.408.408,0,0,0,7.12,7.6v3.288a.408.408,0,0,0,.408.408h2.608v8.3a.408.408,0,0,0,.408.408h3.4a.408.408,0,0,0,.408-.408V11.3H17.4a.408.408,0,0,0,.408-.408V7.6a.408.408,0,0,0-.408-.408h-3.05V5.268c0-.925.22-1.394,1.425-1.394h1.747a.408.408,0,0,0,.408-.408V.412A.408.408,0,0,0,17.526,0Z" transform="translate(-7.12)"/></g></g></svg>