<svg xmlns="http://www.w3.org/2000/svg" xmlns:xlink="http://www.w3.org/1999/xlink" width="20" height="20" viewBox="0 0 20 20"><defs><clipPath id="a"><rect width="20" height="20" stroke="#707070" stroke-width="1"/></clipPath></defs><g clip-path="url(#a)"><path d="M14.481,0H5.519A5.526,5.526,0,0,0,0,5.519v8.961A5.525,5.525,0,0,0,5.519,20h8.961A5.526,5.526,0,0,0,20,14.481V5.519A5.525,5.525,0,0,0,14.481,0Zm3.745,14.481a3.749,3.749,0,0,1-3.745,3.745H5.519a3.749,3.749,0,0,1-3.745-3.745V5.519A3.749,3.749,0,0,1,5.519,1.774h8.961a3.749,3.749,0,0,1,3.745,3.745v8.961Z"/><path d="M12.666,7.512a5.153,5.153,0,1,0,5.153,5.153A5.159,5.159,0,0,0,12.666,7.512Zm0,8.532a3.379,3.379,0,1,1,3.379-3.379A3.383,3.383,0,0,1,12.666,16.045Z" transform="translate(-2.666 -2.666)"/><path d="M23.107,5.18a1.3,1.3,0,1,0,.92.381A1.306,1.306,0,0,0,23.107,5.18Z" transform="translate(-7.738 -1.838)"/></g></svg>